<svg width="454" height="38" viewBox="0 0 454 38" fill="none" xmlns="http://www.w3.org/2000/svg">
<path d="M36.2 2.4V37H31.65V11.2L20.15 37H16.95L5.39998 11.15V37H0.849976V2.4H5.74998L18.55 31L31.35 2.4H36.2Z" fill="#141414"/>
<path d="M42.2164 23.2C42.2164 20.4 42.783 17.95 43.9164 15.85C45.0497 13.7167 46.5997 12.0667 48.5664 10.9C50.5664 9.73333 52.783 9.15 55.2164 9.15C57.6164 9.15 59.6997 9.66666 61.4664 10.7C63.2331 11.7333 64.5497 13.0333 65.4164 14.6V9.6H70.0164V37H65.4164V31.9C64.5164 33.5 63.1664 34.8333 61.3664 35.9C59.5997 36.9333 57.533 37.45 55.1664 37.45C52.733 37.45 50.5331 36.85 48.5664 35.65C46.5997 34.45 45.0497 32.7667 43.9164 30.6C42.783 28.4333 42.2164 25.9667 42.2164 23.2ZM65.4164 23.25C65.4164 21.1833 64.9997 19.3833 64.1664 17.85C63.333 16.3167 62.1997 15.15 60.7664 14.35C59.3664 13.5167 57.8164 13.1 56.1164 13.1C54.4164 13.1 52.8664 13.5 51.4664 14.3C50.0664 15.1 48.9497 16.2667 48.1164 17.8C47.283 19.3333 46.8664 21.1333 46.8664 23.2C46.8664 25.3 47.283 27.1333 48.1164 28.7C48.9497 30.2333 50.0664 31.4167 51.4664 32.25C52.8664 33.05 54.4164 33.45 56.1164 33.45C57.8164 33.45 59.3664 33.05 60.7664 32.25C62.1997 31.4167 63.333 30.2333 64.1664 28.7C64.9997 27.1333 65.4164 25.3167 65.4164 23.25Z" fill="#141414"/>
<path d="M83.2554 13.35V29.5C83.2554 30.8333 83.5388 31.7833 84.1054 32.35C84.6721 32.8833 85.6554 33.15 87.0554 33.15H90.4054V37H86.3054C83.7721 37 81.8721 36.4167 80.6054 35.25C79.3388 34.0833 78.7054 32.1667 78.7054 29.5V13.35H75.1554V9.6H78.7054V2.7H83.2554V9.6H90.4054V13.35H83.2554Z" fill="#141414"/>
<path d="M109.518 9.1C111.585 9.1 113.452 9.55 115.118 10.45C116.785 11.3167 118.085 12.6333 119.018 14.4C119.985 16.1667 120.468 18.3167 120.468 20.85V37H115.968V21.5C115.968 18.7667 115.285 16.6833 113.918 15.25C112.552 13.7833 110.685 13.05 108.318 13.05C105.918 13.05 104.002 13.8 102.568 15.3C101.168 16.8 100.468 18.9833 100.468 21.85V37H95.9183V0H100.468V13.5C101.368 12.1 102.602 11.0167 104.168 10.25C105.768 9.48333 107.552 9.1 109.518 9.1Z" fill="#141414"/>
<path d="M152.901 22.25C152.901 23.1167 152.851 24.0333 152.751 25H130.851C131.017 27.7 131.934 29.8167 133.601 31.35C135.301 32.85 137.351 33.6 139.751 33.6C141.717 33.6 143.351 33.15 144.651 32.25C145.984 31.3167 146.917 30.0833 147.451 28.55H152.351C151.617 31.1833 150.151 33.3333 147.951 35C145.751 36.6333 143.017 37.45 139.751 37.45C137.151 37.45 134.817 36.8667 132.751 35.7C130.717 34.5333 129.117 32.8833 127.951 30.75C126.784 28.5833 126.201 26.0833 126.201 23.25C126.201 20.4167 126.767 17.9333 127.901 15.8C129.034 13.6667 130.617 12.0333 132.651 10.9C134.717 9.73333 137.084 9.15 139.751 9.15C142.351 9.15 144.651 9.71667 146.651 10.85C148.651 11.9833 150.184 13.55 151.251 15.55C152.351 17.5167 152.901 19.75 152.901 22.25ZM148.201 21.3C148.201 19.5667 147.817 18.0833 147.051 16.85C146.284 15.5833 145.234 14.6333 143.901 14C142.601 13.3333 141.151 13 139.551 13C137.251 13 135.284 13.7333 133.651 15.2C132.051 16.6667 131.134 18.7 130.901 21.3H148.201Z" fill="#141414"/>
<path d="M183.207 9.6V37H178.657V32.95C177.79 34.35 176.573 35.45 175.007 36.25C173.473 37.0167 171.773 37.4 169.907 37.4C167.773 37.4 165.857 36.9667 164.157 36.1C162.457 35.2 161.107 33.8667 160.107 32.1C159.14 30.3333 158.657 28.1833 158.657 25.65V9.6H163.157V25.05C163.157 27.75 163.84 29.8333 165.207 31.3C166.573 32.7333 168.44 33.45 170.807 33.45C173.24 33.45 175.157 32.7 176.557 31.2C177.957 29.7 178.657 27.5167 178.657 24.65V9.6H183.207Z" fill="#141414"/>
<path d="M200.589 37.45C198.489 37.45 196.606 37.1 194.939 36.4C193.272 35.6667 191.956 34.6667 190.989 33.4C190.022 32.1 189.489 30.6167 189.389 28.95H194.089C194.222 30.3167 194.856 31.4333 195.989 32.3C197.156 33.1667 198.672 33.6 200.539 33.6C202.272 33.6 203.639 33.2167 204.639 32.45C205.639 31.6833 206.139 30.7167 206.139 29.55C206.139 28.35 205.606 27.4667 204.539 26.9C203.472 26.3 201.822 25.7167 199.589 25.15C197.556 24.6167 195.889 24.0833 194.589 23.55C193.322 22.9833 192.222 22.1667 191.289 21.1C190.389 20 189.939 18.5667 189.939 16.8C189.939 15.4 190.356 14.1167 191.189 12.95C192.022 11.7833 193.206 10.8667 194.739 10.2C196.272 9.5 198.022 9.15 199.989 9.15C203.022 9.15 205.472 9.91667 207.339 11.45C209.206 12.9833 210.206 15.0833 210.339 17.75H205.789C205.689 16.3167 205.106 15.1667 204.039 14.3C203.006 13.4333 201.606 13 199.839 13C198.206 13 196.906 13.35 195.939 14.05C194.972 14.75 194.489 15.6667 194.489 16.8C194.489 17.7 194.772 18.45 195.339 19.05C195.939 19.6167 196.672 20.0833 197.539 20.45C198.439 20.7833 199.672 21.1667 201.239 21.6C203.206 22.1333 204.806 22.6667 206.039 23.2C207.272 23.7 208.322 24.4667 209.189 25.5C210.089 26.5333 210.556 27.8833 210.589 29.55C210.589 31.05 210.172 32.4 209.339 33.6C208.506 34.8 207.322 35.75 205.789 36.45C204.289 37.1167 202.556 37.45 200.589 37.45Z" fill="#141414"/>
<path d="M228.642 19.55C228.642 16.15 229.409 13.1 230.942 10.4C232.476 7.66667 234.559 5.53333 237.192 4C239.859 2.46667 242.809 1.7 246.042 1.7C249.842 1.7 253.159 2.61667 255.992 4.45C258.825 6.28333 260.892 8.88333 262.192 12.25H256.742C255.775 10.15 254.375 8.53333 252.542 7.4C250.742 6.26667 248.575 5.7 246.042 5.7C243.609 5.7 241.425 6.26667 239.492 7.4C237.559 8.53333 236.042 10.15 234.942 12.25C233.842 14.3167 233.292 16.75 233.292 19.55C233.292 22.3167 233.842 24.75 234.942 26.85C236.042 28.9167 237.559 30.5167 239.492 31.65C241.425 32.7833 243.609 33.35 246.042 33.35C248.575 33.35 250.742 32.8 252.542 31.7C254.375 30.5667 255.775 28.95 256.742 26.85H262.192C260.892 30.1833 258.825 32.7667 255.992 34.6C253.159 36.4 249.842 37.3 246.042 37.3C242.809 37.3 239.859 36.55 237.192 35.05C234.559 33.5167 232.476 31.4 230.942 28.7C229.409 26 228.642 22.95 228.642 19.55Z" fill="#141414"/>
<path d="M267.265 23.2C267.265 20.4 267.832 17.95 268.965 15.85C270.099 13.7167 271.649 12.0667 273.615 10.9C275.615 9.73333 277.832 9.15 280.265 9.15C282.665 9.15 284.749 9.66666 286.515 10.7C288.282 11.7333 289.599 13.0333 290.465 14.6V9.6H295.065V37H290.465V31.9C289.565 33.5 288.215 34.8333 286.415 35.9C284.649 36.9333 282.582 37.45 280.215 37.45C277.782 37.45 275.582 36.85 273.615 35.65C271.649 34.45 270.099 32.7667 268.965 30.6C267.832 28.4333 267.265 25.9667 267.265 23.2ZM290.465 23.25C290.465 21.1833 290.049 19.3833 289.215 17.85C288.382 16.3167 287.249 15.15 285.815 14.35C284.415 13.5167 282.865 13.1 281.165 13.1C279.465 13.1 277.915 13.5 276.515 14.3C275.115 15.1 273.999 16.2667 273.165 17.8C272.332 19.3333 271.915 21.1333 271.915 23.2C271.915 25.3 272.332 27.1333 273.165 28.7C273.999 30.2333 275.115 31.4167 276.515 32.25C277.915 33.05 279.465 33.45 281.165 33.45C282.865 33.45 284.415 33.05 285.815 32.25C287.249 31.4167 288.382 30.2333 289.215 28.7C290.049 27.1333 290.465 25.3167 290.465 23.25Z" fill="#141414"/>
<path d="M307.304 14.05C308.104 12.4833 309.238 11.2667 310.704 10.4C312.204 9.53333 314.021 9.1 316.154 9.1V13.8H314.954C309.854 13.8 307.304 16.5667 307.304 22.1V37H302.754V9.6H307.304V14.05Z" fill="#141414"/>
<path d="M331.607 32.8L340.107 9.6H344.957L334.207 37H328.907L318.157 9.6H323.057L331.607 32.8Z" fill="#141414"/>
<path d="M347.734 23.2C347.734 20.4 348.301 17.95 349.434 15.85C350.567 13.7167 352.117 12.0667 354.084 10.9C356.084 9.73333 358.301 9.15 360.734 9.15C363.134 9.15 365.217 9.66666 366.984 10.7C368.751 11.7333 370.067 13.0333 370.934 14.6V9.6H375.534V37H370.934V31.9C370.034 33.5 368.684 34.8333 366.884 35.9C365.117 36.9333 363.051 37.45 360.684 37.45C358.251 37.45 356.051 36.85 354.084 35.65C352.117 34.45 350.567 32.7667 349.434 30.6C348.301 28.4333 347.734 25.9667 347.734 23.2ZM370.934 23.25C370.934 21.1833 370.517 19.3833 369.684 17.85C368.851 16.3167 367.717 15.15 366.284 14.35C364.884 13.5167 363.334 13.1 361.634 13.1C359.934 13.1 358.384 13.5 356.984 14.3C355.584 15.1 354.467 16.2667 353.634 17.8C352.801 19.3333 352.384 21.1333 352.384 23.2C352.384 25.3 352.801 27.1333 353.634 28.7C354.467 30.2333 355.584 31.4167 356.984 32.25C358.384 33.05 359.934 33.45 361.634 33.45C363.334 33.45 364.884 33.05 366.284 32.25C367.717 31.4167 368.851 30.2333 369.684 28.7C370.517 27.1333 370.934 25.3167 370.934 23.25Z" fill="#141414"/>
<path d="M387.773 0V37H383.223V0H387.773Z" fill="#141414"/>
<path d="M409.128 9.1C411.194 9.1 413.061 9.55 414.728 10.45C416.394 11.3167 417.694 12.6333 418.628 14.4C419.594 16.1667 420.078 18.3167 420.078 20.85V37H415.578V21.5C415.578 18.7667 414.894 16.6833 413.528 15.25C412.161 13.7833 410.294 13.05 407.928 13.05C405.528 13.05 403.611 13.8 402.178 15.3C400.778 16.8 400.078 18.9833 400.078 21.85V37H395.528V0H400.078V13.5C400.978 12.1 402.211 11.0167 403.778 10.25C405.378 9.48333 407.161 9.1 409.128 9.1Z" fill="#141414"/>
<path d="M439.46 37.45C436.893 37.45 434.56 36.8667 432.46 35.7C430.393 34.5333 428.76 32.8833 427.56 30.75C426.393 28.5833 425.81 26.0833 425.81 23.25C425.81 20.45 426.41 17.9833 427.61 15.85C428.843 13.6833 430.51 12.0333 432.61 10.9C434.71 9.73333 437.06 9.15 439.66 9.15C442.26 9.15 444.61 9.73333 446.71 10.9C448.81 12.0333 450.46 13.6667 451.66 15.8C452.893 17.9333 453.51 20.4167 453.51 23.25C453.51 26.0833 452.877 28.5833 451.61 30.75C450.377 32.8833 448.693 34.5333 446.56 35.7C444.427 36.8667 442.06 37.45 439.46 37.45ZM439.46 33.45C441.093 33.45 442.627 33.0667 444.06 32.3C445.493 31.5333 446.643 30.3833 447.51 28.85C448.41 27.3167 448.86 25.45 448.86 23.25C448.86 21.05 448.427 19.1833 447.56 17.65C446.693 16.1167 445.56 14.9833 444.16 14.25C442.76 13.4833 441.243 13.1 439.61 13.1C437.943 13.1 436.41 13.4833 435.01 14.25C433.643 14.9833 432.543 16.1167 431.71 17.65C430.877 19.1833 430.46 21.05 430.46 23.25C430.46 25.4833 430.86 27.3667 431.66 28.9C432.493 30.4333 433.593 31.5833 434.96 32.35C436.327 33.0833 437.827 33.45 439.46 33.45Z" fill="#141414"/>
</svg>
